{"title":"Match of the Day - S51E01 - 2nd August 2015 - 720p50 x264","uid":12185895,"size":1519736919,"categoryP":"video","categoryS":"hd___tv_shows","magnet":"?xt=urn:btih:a31c3d382306aeeda7d405bd174706b298ced565&amp;dn=Match+of+the+Day+-+S51E01+-+2nd+August+2015+-+720p50+x264&amp;tr=udp%3A%2F%2Ftracker.openbittorrent.com%3A80&amp;tr=udp%3A%2F%2Fopen.demonii.com%3A1337&amp;tr=udp%3A%2F%2Ftracker.coppersurfer.tk%3A6969&amp;tr=udp%3A%2F%2Fexodus.desync.com%3A6969","seeders":0,"leechers":0,"uploader":"rugbybill","files":2,"time":1438561758,"description":"SPORT: Match of the Day - Community Shield Highlights.\nOn: BBC 1 HD     \nDate: Sunday 2nd August 2015 \nTime: 22:30 to 23:15 \n\nHighlights of the season's traditional curtain-raiser at Wembley Stadium, which sees Premier League champions Chelsea take on FA Cup winners Arsenal. The match will be the first between the clubs since long-serving Blues goalkeeper Petr Cech was allowed to move across the capital to join the Gunners, although it remains to be seen whether the 33-year-old makes his debut against his former employers. Arsenal manager Arsene Wenger may see this match as an opportunity to rid himself of an unwanted statistic - he is winless in 13 matches against Chelsea boss Jose Mourinho. Wenger's men have failed to score a single goal in their last five games against the Blues, but they will have fond memories of their last trip to Wembley in May, when they thrashed Aston Villa 4-0 to win the FA Cup.\n\n\nGeneral\nComplete name               : E:Capping FoldersMatch.of.the.Day-S51E01-2015.08.02-720p50.x264Match.of.the.Day-S51E01-2015.08.02-720p50.x264.mp4\nFormat                      : MPEG-4\nFormat profile              : Base Media / Version 2\nCodec ID                    : mp42\nFile size                   : 1.42 GiB\nDuration                    : 44mn 25s\nOverall bit rate mode       : Variable\nOverall bit rate            : 4 560 Kbps\nWriting application         : #YGFD                     \n\nVideo\nID                          : 1\nFormat                      : AVC\nFormat/Info                 : Advanced Video Codec\nFormat profile              : &lt;a class=&quot;__cf_email__&quot; href=&quot;/cdn-cgi/l/email-protection&quot; data-cfemail=&quot;2169484649616d120f13&quot;&gt;[email&amp;#160;protected]&lt;/a&gt;&lt;script data-cfhash='f9e31' type=&quot;text/javascript&quot;&gt;\n/* &lt;![CDATA[ */!function(){try{var t=&quot;currentScript&quot;in document?document.currentScript:function(){for(var t=document.getElementsByTagName(&quot;script&quot;),e=t.length;e--;)if(t[e].getAttribute(&quot;data-cfhash&quot;))return t[e]}();if(t&amp;&amp;t.previousSibling){var e,r,n,i,c=t.previousSibling,a=c.getAttribute(&quot;data-cfemail&quot;);if(a){for(e=&quot;&quot;,r=parseInt(a.substr(0,2),16),n=2;a.length-n;n+=2)i=parseInt(a.substr(n,2),16)^r,e+=String.fromCharCode(i);e=document.createTextNode(e),c.parentNode.replaceChild(e,c)}t.parentNode.removeChild(t);}}catch(u){}}()/* ]]&gt; */&lt;/script&gt;\nFormat settings, CABAC      : Yes\nFormat settings, ReFrames   : 5 frames\nCodec ID                    : avc1\nCodec ID/Info               : Advanced Video Coding\nDuration                    : 44mn 25s\nBit rate                    : 4 393 Kbps\nWidth                       : 1 280 pixels\nHeight                      : 720 pixels\nDisplay aspect ratio        : 16:9\nFrame rate mode             : Constant\nFrame rate                  : 50.000 fps\nColor space                 : YUV\nChroma subsampling          : 4:2:0\nBit depth                   : 8 bits\nScan type                   : Progressive\nBits/(Pixel*Frame)          : 0.095\nStream size                 : 1.36 GiB (96%)\nWriting library             : x264 core 130 r2273 b3065e6\nEncoding settings           : cabac=1 / ref=5 / deblock=1:0:0 / analyse=0x3:0x113 / me=umh / subme=8 / psy=1 / psy_rd=1.00:0.00 / mixed_ref=1 / me_range=16 / chroma_me=1 / trellis=1 / 8x8dct=1 / cqm=0 / deadzone=21,11 / fast_pskip=1 / chroma_qp_offset=-2 / threads=24 / lookahead_threads=4 / sliced_threads=0 / nr=0 / decimate=1 / interlaced=0 / bluray_compat=0 / constrained_intra=0 / bframes=3 / b_pyramid=2 / b_adapt=2 / b_bias=0 / direct=3 / weightb=1 / open_gop=0 / weightp=2 / keyint=500 / keyint_min=50 / scenecut=40 / intra_refresh=0 / rc_lookahead=50 / rc=crf / mbtree=1 / crf=23.0 / qcomp=0.60 / qpmin=0 / qpmax=69 / qpstep=4 / ip_ratio=1.40 / aq=1:1.00\n\nAudio\nID                          : 2\nFormat                      : AAC\nFormat/Info                 : Advanced Audio Codec\nFormat profile              : LC\nCodec ID                    : 40\nDuration                    : 44mn 25s\nBit rate mode               : Variable\nBit rate                    : 160 Kbps\nMaximum bit rate            : 260 Kbps\nChannel(s)                  : 2 channels\nChannel positions           : Front: L R\nSampling rate               : 48.0 KHz\nCompression mode            : Lossy\nStream size                 : 50.8 MiB (4%)\nTitle                       : Stereo\nLanguage                    : English","torrent":{"xt":"urn:btih:a31c3d382306aeeda7d405bd174706b298ced565","amp;dn":"Match+of+the+Day+-+S51E01+-+2nd+August+2015+-+720p50+x264","amp;tr":["udp%3A%2F%2Ftracker.openbittorrent.com%3A80","udp%3A%2F%2Fopen.demonii.com%3A1337","udp%3A%2F%2Ftracker.coppersurfer.tk%3A6969","udp%3A%2F%2Fexodus.desync.com%3A6969"],"infoHash":"a31c3d382306aeeda7d405bd174706b298ced565","infoHashBuffer":{"type":"Buffer","data":[163,28,61,56,35,6,174,237,167,212,5,189,23,71,6,178,152,206,213,101]},"announce":[],"urlList":[]}}